<mxfile host="app.diagrams.net" agent="Mozilla/5.0 (X11; Ubuntu; Linux x86_64; rv:132.0) Gecko/20100101 Firefox/132.0" version="25.0.1">
  <diagram name="Page-1" id="IRGeYgSV7VS-r8Dip0RA">
    <mxGraphModel dx="1912" dy="1256" grid="1" gridSize="10" guides="1" tooltips="1" connect="1" arrows="1" fold="1" page="1" pageScale="1" pageWidth="850" pageHeight="1100" math="0" shadow="0">
      <root>
        <mxCell id="0" />
        <mxCell id="1" parent="0" />
        <mxCell id="XyCSPBph0Eo5cVXgYDyB-67" value="Package bateau" style="swimlane;whiteSpace=wrap;html=1;" vertex="1" parent="1">
          <mxGeometry x="1580" y="830" width="1110" height="388.92" as="geometry" />
        </mxCell>
        <mxCell id="XyCSPBph0Eo5cVXgYDyB-68" value="CassÃ©e" style="swimlane;fontStyle=1;align=center;verticalAlign=top;childLayout=stackLayout;horizontal=1;startSize=26;horizontalStack=0;resizeParent=1;resizeParentMax=0;resizeLast=0;collapsible=1;marginBottom=0;whiteSpace=wrap;html=1;" vertex="1" parent="XyCSPBph0Eo5cVXgYDyB-67">
          <mxGeometry x="241.5" y="317.91999999999996" width="200" height="34" as="geometry" />
        </mxCell>
        <mxCell id="XyCSPBph0Eo5cVXgYDyB-69" value="" style="line;strokeWidth=1;fillColor=none;align=left;verticalAlign=middle;spacingTop=-1;spacingLeft=3;spacingRight=3;rotatable=0;labelPosition=right;points=[];portConstraint=eastwest;strokeColor=inherit;" vertex="1" parent="XyCSPBph0Eo5cVXgYDyB-68">
          <mxGeometry y="26" width="200" height="8" as="geometry" />
        </mxCell>
        <mxCell id="XyCSPBph0Eo5cVXgYDyB-71" value="EtatCaisse" style="swimlane;fontStyle=1;align=center;verticalAlign=top;childLayout=stackLayout;horizontal=1;startSize=26;horizontalStack=0;resizeParent=1;resizeParentMax=0;resizeLast=0;collapsible=1;marginBottom=0;whiteSpace=wrap;html=1;" vertex="1" parent="XyCSPBph0Eo5cVXgYDyB-67">
          <mxGeometry x="534.75" y="184" width="230" height="34" as="geometry" />
        </mxCell>
        <mxCell id="XyCSPBph0Eo5cVXgYDyB-73" value="" style="line;strokeWidth=1;fillColor=none;align=left;verticalAlign=middle;spacingTop=-1;spacingLeft=3;spacingRight=3;rotatable=0;labelPosition=right;points=[];portConstraint=eastwest;strokeColor=inherit;" vertex="1" parent="XyCSPBph0Eo5cVXgYDyB-71">
          <mxGeometry y="26" width="230" height="8" as="geometry" />
        </mxCell>
        <mxCell id="XyCSPBph0Eo5cVXgYDyB-75" value="CaisseAnimaux&amp;lt;A extends Animaux&amp;gt;" style="swimlane;fontStyle=1;align=center;verticalAlign=top;childLayout=stackLayout;horizontal=1;startSize=26;horizontalStack=0;resizeParent=1;resizeParentMax=0;resizeLast=0;collapsible=1;marginBottom=0;whiteSpace=wrap;html=1;" vertex="1" parent="XyCSPBph0Eo5cVXgYDyB-67">
          <mxGeometry x="33" y="177.92000000000002" width="260" height="34" as="geometry" />
        </mxCell>
        <mxCell id="XyCSPBph0Eo5cVXgYDyB-77" value="" style="line;strokeWidth=1;fillColor=none;align=left;verticalAlign=middle;spacingTop=-1;spacingLeft=3;spacingRight=3;rotatable=0;labelPosition=right;points=[];portConstraint=eastwest;strokeColor=inherit;" vertex="1" parent="XyCSPBph0Eo5cVXgYDyB-75">
          <mxGeometry y="26" width="260" height="8" as="geometry" />
        </mxCell>
        <mxCell id="XyCSPBph0Eo5cVXgYDyB-79" value="" style="endArrow=diamondThin;endFill=0;endSize=24;html=1;rounded=0;" edge="1" parent="XyCSPBph0Eo5cVXgYDyB-67" source="XyCSPBph0Eo5cVXgYDyB-71" target="XyCSPBph0Eo5cVXgYDyB-75">
          <mxGeometry width="160" relative="1" as="geometry">
            <mxPoint x="225.75" y="243" as="sourcePoint" />
            <mxPoint x="34.75" y="244" as="targetPoint" />
          </mxGeometry>
        </mxCell>
        <mxCell id="XyCSPBph0Eo5cVXgYDyB-80" value="Extends" style="endArrow=block;endSize=16;endFill=0;html=1;rounded=0;" edge="1" parent="XyCSPBph0Eo5cVXgYDyB-67" source="XyCSPBph0Eo5cVXgYDyB-68" target="XyCSPBph0Eo5cVXgYDyB-71">
          <mxGeometry width="160" relative="1" as="geometry">
            <mxPoint x="134.75" y="239" as="sourcePoint" />
            <mxPoint x="337.75" y="179" as="targetPoint" />
          </mxGeometry>
        </mxCell>
        <mxCell id="XyCSPBph0Eo5cVXgYDyB-81" value="Bateau" style="swimlane;fontStyle=1;align=center;verticalAlign=top;childLayout=stackLayout;horizontal=1;startSize=26;horizontalStack=0;resizeParent=1;resizeParentMax=0;resizeLast=0;collapsible=1;marginBottom=0;whiteSpace=wrap;html=1;" vertex="1" parent="XyCSPBph0Eo5cVXgYDyB-67">
          <mxGeometry x="33" y="47.920000000000016" width="260" height="34" as="geometry" />
        </mxCell>
        <mxCell id="XyCSPBph0Eo5cVXgYDyB-83" value="" style="line;strokeWidth=1;fillColor=none;align=left;verticalAlign=middle;spacingTop=-1;spacingLeft=3;spacingRight=3;rotatable=0;labelPosition=right;points=[];portConstraint=eastwest;strokeColor=inherit;" vertex="1" parent="XyCSPBph0Eo5cVXgYDyB-81">
          <mxGeometry y="26" width="260" height="8" as="geometry" />
        </mxCell>
        <mxCell id="XyCSPBph0Eo5cVXgYDyB-85" value="" style="endArrow=diamondThin;endFill=0;endSize=24;html=1;rounded=0;" edge="1" parent="XyCSPBph0Eo5cVXgYDyB-67" source="XyCSPBph0Eo5cVXgYDyB-75" target="XyCSPBph0Eo5cVXgYDyB-81">
          <mxGeometry width="160" relative="1" as="geometry">
            <mxPoint x="84.75" y="159" as="sourcePoint" />
            <mxPoint x="-45.25" y="159" as="targetPoint" />
          </mxGeometry>
        </mxCell>
        <mxCell id="XyCSPBph0Eo5cVXgYDyB-86" value="Pleine" style="swimlane;fontStyle=1;align=center;verticalAlign=top;childLayout=stackLayout;horizontal=1;startSize=26;horizontalStack=0;resizeParent=1;resizeParentMax=0;resizeLast=0;collapsible=1;marginBottom=0;whiteSpace=wrap;html=1;" vertex="1" parent="XyCSPBph0Eo5cVXgYDyB-67">
          <mxGeometry x="878" y="317.91999999999996" width="180" height="34" as="geometry" />
        </mxCell>
        <mxCell id="XyCSPBph0Eo5cVXgYDyB-87" value="" style="line;strokeWidth=1;fillColor=none;align=left;verticalAlign=middle;spacingTop=-1;spacingLeft=3;spacingRight=3;rotatable=0;labelPosition=right;points=[];portConstraint=eastwest;strokeColor=inherit;" vertex="1" parent="XyCSPBph0Eo5cVXgYDyB-86">
          <mxGeometry y="26" width="180" height="8" as="geometry" />
        </mxCell>
        <mxCell id="XyCSPBph0Eo5cVXgYDyB-89" value="Vide" style="swimlane;fontStyle=1;align=center;verticalAlign=top;childLayout=stackLayout;horizontal=1;startSize=26;horizontalStack=0;resizeParent=1;resizeParentMax=0;resizeLast=0;collapsible=1;marginBottom=0;whiteSpace=wrap;html=1;" vertex="1" parent="XyCSPBph0Eo5cVXgYDyB-67">
          <mxGeometry x="463" y="317.91999999999996" width="200" height="34" as="geometry" />
        </mxCell>
        <mxCell id="XyCSPBph0Eo5cVXgYDyB-90" value="" style="line;strokeWidth=1;fillColor=none;align=left;verticalAlign=middle;spacingTop=-1;spacingLeft=3;spacingRight=3;rotatable=0;labelPosition=right;points=[];portConstraint=eastwest;strokeColor=inherit;" vertex="1" parent="XyCSPBph0Eo5cVXgYDyB-89">
          <mxGeometry y="26" width="200" height="8" as="geometry" />
        </mxCell>
        <mxCell id="XyCSPBph0Eo5cVXgYDyB-92" value="Rempli" style="swimlane;fontStyle=1;align=center;verticalAlign=top;childLayout=stackLayout;horizontal=1;startSize=26;horizontalStack=0;resizeParent=1;resizeParentMax=0;resizeLast=0;collapsible=1;marginBottom=0;whiteSpace=wrap;html=1;" vertex="1" parent="XyCSPBph0Eo5cVXgYDyB-67">
          <mxGeometry x="683" y="317.91999999999996" width="180" height="34" as="geometry" />
        </mxCell>
        <mxCell id="XyCSPBph0Eo5cVXgYDyB-93" value="" style="line;strokeWidth=1;fillColor=none;align=left;verticalAlign=middle;spacingTop=-1;spacingLeft=3;spacingRight=3;rotatable=0;labelPosition=right;points=[];portConstraint=eastwest;strokeColor=inherit;" vertex="1" parent="XyCSPBph0Eo5cVXgYDyB-92">
          <mxGeometry y="26" width="180" height="8" as="geometry" />
        </mxCell>
        <mxCell id="XyCSPBph0Eo5cVXgYDyB-95" value="Extends" style="endArrow=block;endSize=16;endFill=0;html=1;rounded=0;" edge="1" parent="XyCSPBph0Eo5cVXgYDyB-67" source="XyCSPBph0Eo5cVXgYDyB-86" target="XyCSPBph0Eo5cVXgYDyB-71">
          <mxGeometry width="160" relative="1" as="geometry">
            <mxPoint x="648.75" y="434" as="sourcePoint" />
            <mxPoint x="712.75" y="360" as="targetPoint" />
          </mxGeometry>
        </mxCell>
        <mxCell id="XyCSPBph0Eo5cVXgYDyB-96" value="Extends" style="endArrow=block;endSize=16;endFill=0;html=1;rounded=0;" edge="1" parent="XyCSPBph0Eo5cVXgYDyB-67" source="XyCSPBph0Eo5cVXgYDyB-89" target="XyCSPBph0Eo5cVXgYDyB-71">
          <mxGeometry width="160" relative="1" as="geometry">
            <mxPoint x="320.75" y="403" as="sourcePoint" />
            <mxPoint x="374.75" y="329" as="targetPoint" />
          </mxGeometry>
        </mxCell>
        <mxCell id="XyCSPBph0Eo5cVXgYDyB-97" value="Extends" style="endArrow=block;endSize=16;endFill=0;html=1;rounded=0;" edge="1" parent="XyCSPBph0Eo5cVXgYDyB-67" source="XyCSPBph0Eo5cVXgYDyB-92" target="XyCSPBph0Eo5cVXgYDyB-71">
          <mxGeometry width="160" relative="1" as="geometry">
            <mxPoint x="392.75" y="459" as="sourcePoint" />
            <mxPoint x="456.75" y="385" as="targetPoint" />
          </mxGeometry>
        </mxCell>
        <mxCell id="XyCSPBph0Eo5cVXgYDyB-1" value="Routine" style="swimlane;fontStyle=1;align=center;verticalAlign=top;childLayout=stackLayout;horizontal=1;startSize=26;horizontalStack=0;resizeParent=1;resizeParentMax=0;resizeLast=0;collapsible=1;marginBottom=0;whiteSpace=wrap;html=1;" vertex="1" parent="1">
          <mxGeometry x="590" y="516" width="350" height="34" as="geometry" />
        </mxCell>
        <mxCell id="XyCSPBph0Eo5cVXgYDyB-3" value="" style="line;strokeWidth=1;fillColor=none;align=left;verticalAlign=middle;spacingTop=-1;spacingLeft=3;spacingRight=3;rotatable=0;labelPosition=right;points=[];portConstraint=eastwest;strokeColor=inherit;" vertex="1" parent="XyCSPBph0Eo5cVXgYDyB-1">
          <mxGeometry y="26" width="350" height="8" as="geometry" />
        </mxCell>
        <mxCell id="XyCSPBph0Eo5cVXgYDyB-21" value="" style="endArrow=diamondThin;endFill=0;endSize=24;html=1;rounded=0;" edge="1" parent="1" source="XyCSPBph0Eo5cVXgYDyB-5" target="XyCSPBph0Eo5cVXgYDyB-1">
          <mxGeometry width="160" relative="1" as="geometry">
            <mxPoint x="440" y="670" as="sourcePoint" />
            <mxPoint x="600" y="670" as="targetPoint" />
          </mxGeometry>
        </mxCell>
        <mxCell id="XyCSPBph0Eo5cVXgYDyB-22" value="Extends" style="endArrow=block;endSize=16;endFill=0;html=1;rounded=0;" edge="1" parent="1" source="XyCSPBph0Eo5cVXgYDyB-63" target="XyCSPBph0Eo5cVXgYDyB-5">
          <mxGeometry width="160" relative="1" as="geometry">
            <mxPoint x="440" y="841.08" as="sourcePoint" />
            <mxPoint x="330" y="790" as="targetPoint" />
          </mxGeometry>
        </mxCell>
        <mxCell id="XyCSPBph0Eo5cVXgYDyB-23" value="Extends" style="endArrow=block;endSize=16;endFill=0;html=1;rounded=0;" edge="1" parent="1" source="XyCSPBph0Eo5cVXgYDyB-9" target="XyCSPBph0Eo5cVXgYDyB-99">
          <mxGeometry width="160" relative="1" as="geometry">
            <mxPoint x="490" y="808" as="sourcePoint" />
            <mxPoint x="490" y="680" as="targetPoint" />
            <Array as="points">
              <mxPoint x="1110" y="780" />
            </Array>
          </mxGeometry>
        </mxCell>
        <mxCell id="XyCSPBph0Eo5cVXgYDyB-53" value="Extends" style="endArrow=block;endSize=16;endFill=0;html=1;rounded=0;" edge="1" parent="1" source="XyCSPBph0Eo5cVXgYDyB-38" target="XyCSPBph0Eo5cVXgYDyB-5">
          <mxGeometry x="0.4282" y="-4" width="160" relative="1" as="geometry">
            <mxPoint x="140" y="1059.08" as="sourcePoint" />
            <mxPoint x="190" y="820.003076923077" as="targetPoint" />
            <Array as="points">
              <mxPoint x="470" y="1010" />
              <mxPoint x="470" y="800" />
            </Array>
            <mxPoint as="offset" />
          </mxGeometry>
        </mxCell>
        <mxCell id="XyCSPBph0Eo5cVXgYDyB-54" value="Extends" style="endArrow=block;endSize=16;endFill=0;html=1;rounded=0;" edge="1" parent="1" source="XyCSPBph0Eo5cVXgYDyB-34" target="XyCSPBph0Eo5cVXgYDyB-99">
          <mxGeometry x="0.6821" width="160" relative="1" as="geometry">
            <mxPoint x="490" y="1000" as="sourcePoint" />
            <mxPoint x="490" y="870" as="targetPoint" />
            <Array as="points">
              <mxPoint x="920" y="1020" />
              <mxPoint x="810" y="1020" />
              <mxPoint x="810" y="770" />
              <mxPoint x="960" y="770" />
            </Array>
            <mxPoint as="offset" />
          </mxGeometry>
        </mxCell>
        <mxCell id="XyCSPBph0Eo5cVXgYDyB-55" value="" style="endArrow=diamondThin;endFill=0;endSize=24;html=1;rounded=0;" edge="1" parent="1" source="XyCSPBph0Eo5cVXgYDyB-99" target="XyCSPBph0Eo5cVXgYDyB-81">
          <mxGeometry width="160" relative="1" as="geometry">
            <mxPoint x="1080" y="556" as="sourcePoint" />
            <mxPoint x="920" y="512" as="targetPoint" />
            <Array as="points">
              <mxPoint x="1743" y="669" />
            </Array>
          </mxGeometry>
        </mxCell>
        <mxCell id="XyCSPBph0Eo5cVXgYDyB-56" value="" style="endArrow=diamondThin;endFill=0;endSize=24;html=1;rounded=0;" edge="1" parent="1" source="XyCSPBph0Eo5cVXgYDyB-99" target="XyCSPBph0Eo5cVXgYDyB-75">
          <mxGeometry width="160" relative="1" as="geometry">
            <mxPoint x="1110" y="588" as="sourcePoint" />
            <mxPoint x="950" y="544" as="targetPoint" />
            <Array as="points">
              <mxPoint x="1550" y="690" />
              <mxPoint x="1550" y="1020" />
            </Array>
          </mxGeometry>
        </mxCell>
        <mxCell id="XyCSPBph0Eo5cVXgYDyB-57" value="Package croco" style="swimlane;horizontal=0;whiteSpace=wrap;html=1;" vertex="1" parent="1">
          <mxGeometry x="450" y="1050" width="1040" height="168.92" as="geometry" />
        </mxCell>
        <mxCell id="XyCSPBph0Eo5cVXgYDyB-42" value="EtatCroco" style="swimlane;fontStyle=1;align=center;verticalAlign=top;childLayout=stackLayout;horizontal=1;startSize=26;horizontalStack=0;resizeParent=1;resizeParentMax=0;resizeLast=0;collapsible=1;marginBottom=0;whiteSpace=wrap;html=1;" vertex="1" parent="XyCSPBph0Eo5cVXgYDyB-57">
          <mxGeometry x="736" y="28.920000000000073" width="160" height="34" as="geometry" />
        </mxCell>
        <mxCell id="XyCSPBph0Eo5cVXgYDyB-44" value="" style="line;strokeWidth=1;fillColor=none;align=left;verticalAlign=middle;spacingTop=-1;spacingLeft=3;spacingRight=3;rotatable=0;labelPosition=right;points=[];portConstraint=eastwest;strokeColor=inherit;" vertex="1" parent="XyCSPBph0Eo5cVXgYDyB-42">
          <mxGeometry y="26" width="160" height="8" as="geometry" />
        </mxCell>
        <mxCell id="XyCSPBph0Eo5cVXgYDyB-50" value="Extends" style="endArrow=block;endSize=16;endFill=0;html=1;rounded=0;" edge="1" parent="XyCSPBph0Eo5cVXgYDyB-57" source="XyCSPBph0Eo5cVXgYDyB-46" target="XyCSPBph0Eo5cVXgYDyB-42">
          <mxGeometry width="160" relative="1" as="geometry">
            <mxPoint x="1046" y="238.92000000000007" as="sourcePoint" />
            <mxPoint x="706" y="-13.079999999999927" as="targetPoint" />
          </mxGeometry>
        </mxCell>
        <mxCell id="XyCSPBph0Eo5cVXgYDyB-51" value="" style="endArrow=diamondThin;endFill=0;endSize=24;html=1;rounded=0;" edge="1" parent="XyCSPBph0Eo5cVXgYDyB-57" source="XyCSPBph0Eo5cVXgYDyB-42" target="XyCSPBph0Eo5cVXgYDyB-34">
          <mxGeometry width="160" relative="1" as="geometry">
            <mxPoint x="645" y="-125.07999999999993" as="sourcePoint" />
            <mxPoint x="688" y="-227.07999999999993" as="targetPoint" />
          </mxGeometry>
        </mxCell>
        <mxCell id="XyCSPBph0Eo5cVXgYDyB-34" value="Croco" style="swimlane;fontStyle=1;align=center;verticalAlign=top;childLayout=stackLayout;horizontal=1;startSize=26;horizontalStack=0;resizeParent=1;resizeParentMax=0;resizeLast=0;collapsible=1;marginBottom=0;whiteSpace=wrap;html=1;" vertex="1" parent="XyCSPBph0Eo5cVXgYDyB-57">
          <mxGeometry x="360" y="28.92" width="220" height="34" as="geometry" />
        </mxCell>
        <mxCell id="XyCSPBph0Eo5cVXgYDyB-36" value="" style="line;strokeWidth=1;fillColor=none;align=left;verticalAlign=middle;spacingTop=-1;spacingLeft=3;spacingRight=3;rotatable=0;labelPosition=right;points=[];portConstraint=eastwest;strokeColor=inherit;" vertex="1" parent="XyCSPBph0Eo5cVXgYDyB-34">
          <mxGeometry y="26" width="220" height="8" as="geometry" />
        </mxCell>
        <mxCell id="XyCSPBph0Eo5cVXgYDyB-38" value="GestionnaireCroco" style="swimlane;fontStyle=1;align=center;verticalAlign=top;childLayout=stackLayout;horizontal=1;startSize=26;horizontalStack=0;resizeParent=1;resizeParentMax=0;resizeLast=0;collapsible=1;marginBottom=0;whiteSpace=wrap;html=1;" vertex="1" parent="XyCSPBph0Eo5cVXgYDyB-57">
          <mxGeometry x="40" y="28.92" width="190" height="34" as="geometry" />
        </mxCell>
        <mxCell id="XyCSPBph0Eo5cVXgYDyB-40" value="" style="line;strokeWidth=1;fillColor=none;align=left;verticalAlign=middle;spacingTop=-1;spacingLeft=3;spacingRight=3;rotatable=0;labelPosition=right;points=[];portConstraint=eastwest;strokeColor=inherit;" vertex="1" parent="XyCSPBph0Eo5cVXgYDyB-38">
          <mxGeometry y="26" width="190" height="8" as="geometry" />
        </mxCell>
        <mxCell id="XyCSPBph0Eo5cVXgYDyB-52" value="Create" style="endArrow=open;endSize=12;dashed=1;html=1;rounded=0;" edge="1" parent="XyCSPBph0Eo5cVXgYDyB-57" source="XyCSPBph0Eo5cVXgYDyB-38" target="XyCSPBph0Eo5cVXgYDyB-34">
          <mxGeometry x="0.0769" width="160" relative="1" as="geometry">
            <mxPoint x="140" y="198.92000000000002" as="sourcePoint" />
            <mxPoint x="310" y="198.92000000000002" as="targetPoint" />
            <mxPoint as="offset" />
          </mxGeometry>
        </mxCell>
        <mxCell id="XyCSPBph0Eo5cVXgYDyB-46" value="Jeune" style="swimlane;fontStyle=1;align=center;verticalAlign=top;childLayout=stackLayout;horizontal=1;startSize=26;horizontalStack=0;resizeParent=1;resizeParentMax=0;resizeLast=0;collapsible=1;marginBottom=0;whiteSpace=wrap;html=1;" vertex="1" parent="XyCSPBph0Eo5cVXgYDyB-57">
          <mxGeometry x="820" y="107.84000000000007" width="160" height="34" as="geometry" />
        </mxCell>
        <mxCell id="XyCSPBph0Eo5cVXgYDyB-48" value="" style="line;strokeWidth=1;fillColor=none;align=left;verticalAlign=middle;spacingTop=-1;spacingLeft=3;spacingRight=3;rotatable=0;labelPosition=right;points=[];portConstraint=eastwest;strokeColor=inherit;" vertex="1" parent="XyCSPBph0Eo5cVXgYDyB-46">
          <mxGeometry y="26" width="160" height="8" as="geometry" />
        </mxCell>
        <mxCell id="XyCSPBph0Eo5cVXgYDyB-128" value="Adult" style="swimlane;fontStyle=1;align=center;verticalAlign=top;childLayout=stackLayout;horizontal=1;startSize=26;horizontalStack=0;resizeParent=1;resizeParentMax=0;resizeLast=0;collapsible=1;marginBottom=0;whiteSpace=wrap;html=1;" vertex="1" parent="XyCSPBph0Eo5cVXgYDyB-57">
          <mxGeometry x="590" y="107.84000000000002" width="160" height="34" as="geometry" />
        </mxCell>
        <mxCell id="XyCSPBph0Eo5cVXgYDyB-129" value="" style="line;strokeWidth=1;fillColor=none;align=left;verticalAlign=middle;spacingTop=-1;spacingLeft=3;spacingRight=3;rotatable=0;labelPosition=right;points=[];portConstraint=eastwest;strokeColor=inherit;" vertex="1" parent="XyCSPBph0Eo5cVXgYDyB-128">
          <mxGeometry y="26" width="160" height="8" as="geometry" />
        </mxCell>
        <mxCell id="XyCSPBph0Eo5cVXgYDyB-130" value="Extends" style="endArrow=block;endSize=16;endFill=0;html=1;rounded=0;" edge="1" parent="XyCSPBph0Eo5cVXgYDyB-57" source="XyCSPBph0Eo5cVXgYDyB-128" target="XyCSPBph0Eo5cVXgYDyB-42">
          <mxGeometry width="160" relative="1" as="geometry">
            <mxPoint x="887" y="222.92000000000007" as="sourcePoint" />
            <mxPoint x="780" y="96.92000000000007" as="targetPoint" />
          </mxGeometry>
        </mxCell>
        <mxCell id="XyCSPBph0Eo5cVXgYDyB-58" value="Package lapin" style="swimlane;horizontal=0;whiteSpace=wrap;html=1;" vertex="1" parent="1">
          <mxGeometry x="510" y="820" width="960" height="178.92" as="geometry" />
        </mxCell>
        <mxCell id="XyCSPBph0Eo5cVXgYDyB-9" value="Lapin" style="swimlane;fontStyle=1;align=center;verticalAlign=top;childLayout=stackLayout;horizontal=1;startSize=26;horizontalStack=0;resizeParent=1;resizeParentMax=0;resizeLast=0;collapsible=1;marginBottom=0;whiteSpace=wrap;html=1;" vertex="1" parent="XyCSPBph0Eo5cVXgYDyB-58">
          <mxGeometry x="360" y="20" width="220" height="34" as="geometry" />
        </mxCell>
        <mxCell id="XyCSPBph0Eo5cVXgYDyB-11" value="" style="line;strokeWidth=1;fillColor=none;align=left;verticalAlign=middle;spacingTop=-1;spacingLeft=3;spacingRight=3;rotatable=0;labelPosition=right;points=[];portConstraint=eastwest;strokeColor=inherit;" vertex="1" parent="XyCSPBph0Eo5cVXgYDyB-9">
          <mxGeometry y="26" width="220" height="8" as="geometry" />
        </mxCell>
        <mxCell id="XyCSPBph0Eo5cVXgYDyB-27" value="" style="endArrow=diamondThin;endFill=0;endSize=24;html=1;rounded=0;" edge="1" parent="XyCSPBph0Eo5cVXgYDyB-58" source="XyCSPBph0Eo5cVXgYDyB-59" target="XyCSPBph0Eo5cVXgYDyB-9">
          <mxGeometry width="160" relative="1" as="geometry">
            <mxPoint x="680" y="-94" as="sourcePoint" />
            <mxPoint x="723" y="-196" as="targetPoint" />
          </mxGeometry>
        </mxCell>
        <mxCell id="XyCSPBph0Eo5cVXgYDyB-33" value="Create" style="endArrow=open;endSize=12;dashed=1;html=1;rounded=0;" edge="1" parent="XyCSPBph0Eo5cVXgYDyB-58" source="XyCSPBph0Eo5cVXgYDyB-63" target="XyCSPBph0Eo5cVXgYDyB-9">
          <mxGeometry x="-0.5385" width="160" relative="1" as="geometry">
            <mxPoint x="280" y="50" as="sourcePoint" />
            <mxPoint x="225" y="229.9999999999999" as="targetPoint" />
            <mxPoint as="offset" />
          </mxGeometry>
        </mxCell>
        <mxCell id="XyCSPBph0Eo5cVXgYDyB-59" value="EtatLapin" style="swimlane;fontStyle=1;align=center;verticalAlign=top;childLayout=stackLayout;horizontal=1;startSize=26;horizontalStack=0;resizeParent=1;resizeParentMax=0;resizeLast=0;collapsible=1;marginBottom=0;whiteSpace=wrap;html=1;" vertex="1" parent="XyCSPBph0Eo5cVXgYDyB-58">
          <mxGeometry x="689" y="20" width="160" height="34" as="geometry" />
        </mxCell>
        <mxCell id="XyCSPBph0Eo5cVXgYDyB-61" value="" style="line;strokeWidth=1;fillColor=none;align=left;verticalAlign=middle;spacingTop=-1;spacingLeft=3;spacingRight=3;rotatable=0;labelPosition=right;points=[];portConstraint=eastwest;strokeColor=inherit;" vertex="1" parent="XyCSPBph0Eo5cVXgYDyB-59">
          <mxGeometry y="26" width="160" height="8" as="geometry" />
        </mxCell>
        <mxCell id="XyCSPBph0Eo5cVXgYDyB-63" value="GestionnaireLapin" style="swimlane;fontStyle=1;align=center;verticalAlign=top;childLayout=stackLayout;horizontal=1;startSize=26;horizontalStack=0;resizeParent=1;resizeParentMax=0;resizeLast=0;collapsible=1;marginBottom=0;whiteSpace=wrap;html=1;" vertex="1" parent="XyCSPBph0Eo5cVXgYDyB-58">
          <mxGeometry x="40" y="19.999999999999957" width="190" height="34" as="geometry" />
        </mxCell>
        <mxCell id="XyCSPBph0Eo5cVXgYDyB-65" value="" style="line;strokeWidth=1;fillColor=none;align=left;verticalAlign=middle;spacingTop=-1;spacingLeft=3;spacingRight=3;rotatable=0;labelPosition=right;points=[];portConstraint=eastwest;strokeColor=inherit;" vertex="1" parent="XyCSPBph0Eo5cVXgYDyB-63">
          <mxGeometry y="26" width="190" height="8" as="geometry" />
        </mxCell>
        <mxCell id="XyCSPBph0Eo5cVXgYDyB-13" value="Adult" style="swimlane;fontStyle=1;align=center;verticalAlign=top;childLayout=stackLayout;horizontal=1;startSize=26;horizontalStack=0;resizeParent=1;resizeParentMax=0;resizeLast=0;collapsible=1;marginBottom=0;whiteSpace=wrap;html=1;" vertex="1" parent="XyCSPBph0Eo5cVXgYDyB-58">
          <mxGeometry x="540" y="108.91999999999996" width="160" height="34" as="geometry" />
        </mxCell>
        <mxCell id="XyCSPBph0Eo5cVXgYDyB-15" value="" style="line;strokeWidth=1;fillColor=none;align=left;verticalAlign=middle;spacingTop=-1;spacingLeft=3;spacingRight=3;rotatable=0;labelPosition=right;points=[];portConstraint=eastwest;strokeColor=inherit;" vertex="1" parent="XyCSPBph0Eo5cVXgYDyB-13">
          <mxGeometry y="26" width="160" height="8" as="geometry" />
        </mxCell>
        <mxCell id="XyCSPBph0Eo5cVXgYDyB-17" value="Jeune" style="swimlane;fontStyle=1;align=center;verticalAlign=top;childLayout=stackLayout;horizontal=1;startSize=26;horizontalStack=0;resizeParent=1;resizeParentMax=0;resizeLast=0;collapsible=1;marginBottom=0;whiteSpace=wrap;html=1;" vertex="1" parent="XyCSPBph0Eo5cVXgYDyB-58">
          <mxGeometry x="770" y="108.91999999999996" width="160" height="34" as="geometry" />
        </mxCell>
        <mxCell id="XyCSPBph0Eo5cVXgYDyB-19" value="" style="line;strokeWidth=1;fillColor=none;align=left;verticalAlign=middle;spacingTop=-1;spacingLeft=3;spacingRight=3;rotatable=0;labelPosition=right;points=[];portConstraint=eastwest;strokeColor=inherit;" vertex="1" parent="XyCSPBph0Eo5cVXgYDyB-17">
          <mxGeometry y="26" width="160" height="8" as="geometry" />
        </mxCell>
        <mxCell id="XyCSPBph0Eo5cVXgYDyB-24" value="Extends" style="endArrow=block;endSize=16;endFill=0;html=1;rounded=0;" edge="1" parent="XyCSPBph0Eo5cVXgYDyB-58" source="XyCSPBph0Eo5cVXgYDyB-13" target="XyCSPBph0Eo5cVXgYDyB-59">
          <mxGeometry width="160" relative="1" as="geometry">
            <mxPoint x="560" y="158" as="sourcePoint" />
            <mxPoint x="560" y="30" as="targetPoint" />
          </mxGeometry>
        </mxCell>
        <mxCell id="XyCSPBph0Eo5cVXgYDyB-25" value="Extends" style="endArrow=block;endSize=16;endFill=0;html=1;rounded=0;" edge="1" parent="XyCSPBph0Eo5cVXgYDyB-58" source="XyCSPBph0Eo5cVXgYDyB-17" target="XyCSPBph0Eo5cVXgYDyB-59">
          <mxGeometry width="160" relative="1" as="geometry">
            <mxPoint x="640" y="146" as="sourcePoint" />
            <mxPoint x="640" y="18" as="targetPoint" />
          </mxGeometry>
        </mxCell>
        <mxCell id="XyCSPBph0Eo5cVXgYDyB-98" value="Package gestionnaire_animaux" style="swimlane;horizontal=0;whiteSpace=wrap;html=1;" vertex="1" parent="1">
          <mxGeometry x="530" y="620" width="760" height="100" as="geometry" />
        </mxCell>
        <mxCell id="XyCSPBph0Eo5cVXgYDyB-99" value="Animaux" style="swimlane;fontStyle=1;align=center;verticalAlign=top;childLayout=stackLayout;horizontal=1;startSize=26;horizontalStack=0;resizeParent=1;resizeParentMax=0;resizeLast=0;collapsible=1;marginBottom=0;whiteSpace=wrap;html=1;" vertex="1" parent="XyCSPBph0Eo5cVXgYDyB-98">
          <mxGeometry x="500" y="32" width="160" height="34" as="geometry" />
        </mxCell>
        <mxCell id="XyCSPBph0Eo5cVXgYDyB-101" value="" style="line;strokeWidth=1;fillColor=none;align=left;verticalAlign=middle;spacingTop=-1;spacingLeft=3;spacingRight=3;rotatable=0;labelPosition=right;points=[];portConstraint=eastwest;strokeColor=inherit;" vertex="1" parent="XyCSPBph0Eo5cVXgYDyB-99">
          <mxGeometry y="26" width="160" height="8" as="geometry" />
        </mxCell>
        <mxCell id="XyCSPBph0Eo5cVXgYDyB-5" value="GestionnaireAnimaux" style="swimlane;fontStyle=1;align=center;verticalAlign=top;childLayout=stackLayout;horizontal=1;startSize=26;horizontalStack=0;resizeParent=1;resizeParentMax=0;resizeLast=0;collapsible=1;marginBottom=0;whiteSpace=wrap;html=1;" vertex="1" parent="XyCSPBph0Eo5cVXgYDyB-98">
          <mxGeometry x="110" y="32" width="250" height="34" as="geometry" />
        </mxCell>
        <mxCell id="XyCSPBph0Eo5cVXgYDyB-7" value="" style="line;strokeWidth=1;fillColor=none;align=left;verticalAlign=middle;spacingTop=-1;spacingLeft=3;spacingRight=3;rotatable=0;labelPosition=right;points=[];portConstraint=eastwest;strokeColor=inherit;" vertex="1" parent="XyCSPBph0Eo5cVXgYDyB-5">
          <mxGeometry y="26" width="250" height="8" as="geometry" />
        </mxCell>
        <mxCell id="XyCSPBph0Eo5cVXgYDyB-26" value="" style="endArrow=diamondThin;endFill=0;endSize=24;html=1;rounded=0;" edge="1" parent="XyCSPBph0Eo5cVXgYDyB-98" source="XyCSPBph0Eo5cVXgYDyB-99" target="XyCSPBph0Eo5cVXgYDyB-5">
          <mxGeometry width="160" relative="1" as="geometry">
            <mxPoint x="-40" y="86" as="sourcePoint" />
            <mxPoint x="3" y="-16" as="targetPoint" />
          </mxGeometry>
        </mxCell>
        <mxCell id="XyCSPBph0Eo5cVXgYDyB-32" value="Use" style="endArrow=open;endSize=12;dashed=1;html=1;rounded=0;" edge="1" parent="XyCSPBph0Eo5cVXgYDyB-98" source="XyCSPBph0Eo5cVXgYDyB-5" target="XyCSPBph0Eo5cVXgYDyB-99">
          <mxGeometry width="160" relative="1" as="geometry">
            <mxPoint x="-90" y="-14" as="sourcePoint" />
            <mxPoint x="80" y="-14" as="targetPoint" />
          </mxGeometry>
        </mxCell>
        <mxCell id="XyCSPBph0Eo5cVXgYDyB-103" value="Packages agents" style="swimlane;whiteSpace=wrap;html=1;" vertex="1" parent="1">
          <mxGeometry x="1450" y="500" width="620" height="120" as="geometry" />
        </mxCell>
        <mxCell id="XyCSPBph0Eo5cVXgYDyB-104" value="State" style="swimlane;fontStyle=1;align=center;verticalAlign=top;childLayout=stackLayout;horizontal=1;startSize=26;horizontalStack=0;resizeParent=1;resizeParentMax=0;resizeLast=0;collapsible=1;marginBottom=0;whiteSpace=wrap;html=1;" vertex="1" parent="XyCSPBph0Eo5cVXgYDyB-103">
          <mxGeometry x="414" y="50" width="160" height="34" as="geometry" />
        </mxCell>
        <mxCell id="XyCSPBph0Eo5cVXgYDyB-106" value="" style="line;strokeWidth=1;fillColor=none;align=left;verticalAlign=middle;spacingTop=-1;spacingLeft=3;spacingRight=3;rotatable=0;labelPosition=right;points=[];portConstraint=eastwest;strokeColor=inherit;" vertex="1" parent="XyCSPBph0Eo5cVXgYDyB-104">
          <mxGeometry y="26" width="160" height="8" as="geometry" />
        </mxCell>
        <mxCell id="XyCSPBph0Eo5cVXgYDyB-108" value="Agents" style="swimlane;fontStyle=1;align=center;verticalAlign=top;childLayout=stackLayout;horizontal=1;startSize=26;horizontalStack=0;resizeParent=1;resizeParentMax=0;resizeLast=0;collapsible=1;marginBottom=0;whiteSpace=wrap;html=1;" vertex="1" parent="XyCSPBph0Eo5cVXgYDyB-103">
          <mxGeometry x="40" y="50" width="160" height="34" as="geometry" />
        </mxCell>
        <mxCell id="XyCSPBph0Eo5cVXgYDyB-110" value="" style="line;strokeWidth=1;fillColor=none;align=left;verticalAlign=middle;spacingTop=-1;spacingLeft=3;spacingRight=3;rotatable=0;labelPosition=right;points=[];portConstraint=eastwest;strokeColor=inherit;" vertex="1" parent="XyCSPBph0Eo5cVXgYDyB-108">
          <mxGeometry y="26" width="160" height="8" as="geometry" />
        </mxCell>
        <mxCell id="XyCSPBph0Eo5cVXgYDyB-112" value="" style="endArrow=diamondThin;endFill=0;endSize=24;html=1;rounded=0;" edge="1" parent="XyCSPBph0Eo5cVXgYDyB-103" source="XyCSPBph0Eo5cVXgYDyB-104" target="XyCSPBph0Eo5cVXgYDyB-108">
          <mxGeometry width="160" relative="1" as="geometry">
            <mxPoint x="350" y="182" as="sourcePoint" />
            <mxPoint x="150" y="198" as="targetPoint" />
          </mxGeometry>
        </mxCell>
        <mxCell id="XyCSPBph0Eo5cVXgYDyB-113" value="Extends" style="endArrow=block;endSize=16;endFill=0;html=1;rounded=0;" edge="1" parent="1" source="XyCSPBph0Eo5cVXgYDyB-99" target="XyCSPBph0Eo5cVXgYDyB-108">
          <mxGeometry width="160" relative="1" as="geometry">
            <mxPoint x="1110" y="641" as="sourcePoint" />
            <mxPoint x="1170" y="260" as="targetPoint" />
          </mxGeometry>
        </mxCell>
        <mxCell id="XyCSPBph0Eo5cVXgYDyB-114" value="Extends" style="endArrow=block;endSize=16;endFill=0;html=1;rounded=0;" edge="1" parent="1" source="XyCSPBph0Eo5cVXgYDyB-59" target="XyCSPBph0Eo5cVXgYDyB-104">
          <mxGeometry x="-0.4124" width="160" relative="1" as="geometry">
            <mxPoint x="753" y="524" as="sourcePoint" />
            <mxPoint x="1157" y="194" as="targetPoint" />
            <Array as="points">
              <mxPoint x="1480" y="860" />
              <mxPoint x="1480" y="640" />
            </Array>
            <mxPoint as="offset" />
          </mxGeometry>
        </mxCell>
        <mxCell id="XyCSPBph0Eo5cVXgYDyB-115" value="Extends" style="endArrow=block;endSize=16;endFill=0;html=1;rounded=0;" edge="1" parent="1" source="XyCSPBph0Eo5cVXgYDyB-42" target="XyCSPBph0Eo5cVXgYDyB-104">
          <mxGeometry x="-0.2827" width="160" relative="1" as="geometry">
            <mxPoint x="1170" y="920" as="sourcePoint" />
            <mxPoint x="1568" y="198" as="targetPoint" />
            <Array as="points">
              <mxPoint x="1520" y="1100" />
              <mxPoint x="1520" y="640" />
            </Array>
            <mxPoint as="offset" />
          </mxGeometry>
        </mxCell>
        <mxCell id="XyCSPBph0Eo5cVXgYDyB-116" value="Package Pirates" style="swimlane;horizontal=0;whiteSpace=wrap;html=1;" vertex="1" parent="1">
          <mxGeometry x="2090" y="700" width="560" height="100" as="geometry" />
        </mxCell>
        <mxCell id="XyCSPBph0Eo5cVXgYDyB-117" value="Ãquipage" style="swimlane;fontStyle=1;align=center;verticalAlign=top;childLayout=stackLayout;horizontal=1;startSize=26;horizontalStack=0;resizeParent=1;resizeParentMax=0;resizeLast=0;collapsible=1;marginBottom=0;whiteSpace=wrap;html=1;" vertex="1" parent="XyCSPBph0Eo5cVXgYDyB-116">
          <mxGeometry x="50" y="30" width="160" height="34" as="geometry" />
        </mxCell>
        <mxCell id="XyCSPBph0Eo5cVXgYDyB-119" value="" style="line;strokeWidth=1;fillColor=none;align=left;verticalAlign=middle;spacingTop=-1;spacingLeft=3;spacingRight=3;rotatable=0;labelPosition=right;points=[];portConstraint=eastwest;strokeColor=inherit;" vertex="1" parent="XyCSPBph0Eo5cVXgYDyB-117">
          <mxGeometry y="26" width="160" height="8" as="geometry" />
        </mxCell>
        <mxCell id="XyCSPBph0Eo5cVXgYDyB-121" value="Pirate" style="swimlane;fontStyle=1;align=center;verticalAlign=top;childLayout=stackLayout;horizontal=1;startSize=26;horizontalStack=0;resizeParent=1;resizeParentMax=0;resizeLast=0;collapsible=1;marginBottom=0;whiteSpace=wrap;html=1;" vertex="1" parent="XyCSPBph0Eo5cVXgYDyB-116">
          <mxGeometry x="350" y="30" width="160" height="34" as="geometry" />
        </mxCell>
        <mxCell id="XyCSPBph0Eo5cVXgYDyB-123" value="" style="line;strokeWidth=1;fillColor=none;align=left;verticalAlign=middle;spacingTop=-1;spacingLeft=3;spacingRight=3;rotatable=0;labelPosition=right;points=[];portConstraint=eastwest;strokeColor=inherit;" vertex="1" parent="XyCSPBph0Eo5cVXgYDyB-121">
          <mxGeometry y="26" width="160" height="8" as="geometry" />
        </mxCell>
        <mxCell id="XyCSPBph0Eo5cVXgYDyB-125" value="" style="endArrow=diamondThin;endFill=0;endSize=24;html=1;rounded=0;" edge="1" parent="XyCSPBph0Eo5cVXgYDyB-116" source="XyCSPBph0Eo5cVXgYDyB-121" target="XyCSPBph0Eo5cVXgYDyB-117">
          <mxGeometry width="160" relative="1" as="geometry">
            <mxPoint x="510" y="260" as="sourcePoint" />
            <mxPoint x="296" y="260" as="targetPoint" />
          </mxGeometry>
        </mxCell>
        <mxCell id="XyCSPBph0Eo5cVXgYDyB-126" value="" style="endArrow=diamondThin;endFill=0;endSize=24;html=1;rounded=0;" edge="1" parent="1" source="XyCSPBph0Eo5cVXgYDyB-117" target="XyCSPBph0Eo5cVXgYDyB-81">
          <mxGeometry width="160" relative="1" as="geometry">
            <mxPoint x="2310" y="613.5799999999999" as="sourcePoint" />
            <mxPoint x="2170" y="613.5799999999999" as="targetPoint" />
            <Array as="points">
              <mxPoint x="2220" y="890" />
            </Array>
          </mxGeometry>
        </mxCell>
        <mxCell id="XyCSPBph0Eo5cVXgYDyB-127" value="Extends" style="endArrow=block;endSize=16;endFill=0;html=1;rounded=0;" edge="1" parent="1" source="XyCSPBph0Eo5cVXgYDyB-121" target="XyCSPBph0Eo5cVXgYDyB-108">
          <mxGeometry width="160" relative="1" as="geometry">
            <mxPoint x="1920" y="273" as="sourcePoint" />
            <mxPoint x="2336" y="-112" as="targetPoint" />
            <Array as="points">
              <mxPoint x="2520" y="460" />
              <mxPoint x="1570" y="460" />
            </Array>
          </mxGeometry>
        </mxCell>
        <mxCell id="XyCSPBph0Eo5cVXgYDyB-132" value="casse / rÃ©pare" style="endArrow=open;endSize=12;dashed=1;html=1;rounded=0;" edge="1" parent="1" source="XyCSPBph0Eo5cVXgYDyB-121" target="XyCSPBph0Eo5cVXgYDyB-75">
          <mxGeometry width="160" relative="1" as="geometry">
            <mxPoint x="2149.75" y="950" as="sourcePoint" />
            <mxPoint x="2309.75" y="950" as="targetPoint" />
            <Array as="points">
              <mxPoint x="2450" y="930" />
            </Array>
          </mxGeometry>
        </mxCell>
      </root>
    </mxGraphModel>
  </diagram>
</mxfile>
